<?xml version="1.0"?>
<svg version="1.1" xmlns="http://www.w3.org/2000/svg" width="244" height="108" style="border: dashed 2px #aaa"><path fill="#130ced" d="M16.6083984375,73.93359375q0-1.1865234375,0.11865234375-2.83447265625t0.54052734375-2.72900390625q0.158203125-0.369140625,0.67236328125-0.72509765625t1.0810546875-0.43505859375t1.001953125,0.1318359375t0.43505859375,0.9228515625q0,1.2392578125-0.052734375,3.1376953125l0,0.8173828125q0,1.4501953125,0.1318359375,2.7685546875q0.1845703125,1.740234375,0.791015625,2.9267578125q0.52734375,1.0810546875,1.6611328125,1.0810546875l0.2109375,0q1.5556640625-0.10546875,2.2939453125-1.2919921875t1.001953125-2.8212890625q0.2373046875-1.5029296875,0.2373046875-3.1640625l0-0.31640625q-0.0263671875-1.845703125-0.0263671875-3.2431640625q0-5.5634765625-0.369140625-11.1533203125t-0.369140625-11.2060546875q0-0.9228515625-0.0791015625-2.00390625q-0.0263671875-0.3955078125-0.0263671875-0.791015625q0-0.6328125,0.0791015625-1.212890625q0.1318359375-0.9228515625,0.67236328125-1.54248046875t1.83251953125-0.61962890625q0.7119140625,0,1.30517578125,0.17138671875t1.06787109375,0.69873046875q0.6064453125,6.85546875,1.001953125,13.93505859375t0.3955078125,13.98779296875q0,2.373046875-0.3955078125,4.7724609375t-1.4501953125,4.32421875t-2.9267578125,3.1376953125t-4.7724609375,1.212890625q-1.740234375,0-2.900390625-0.61962890625t-1.85888671875-1.70068359375t-1.001953125-2.51806640625t-0.30322265625-3.09814453125z M37.614345703125,71.1650390625q0-1.79296875,0.48779296875-3.4541015625t1.46337890625-2.96630859375t2.43896484375-2.0830078125t3.38818359375-0.77783203125q1.1865234375,0,2.62353515625,0.35595703125t2.70263671875,1.0546875t2.109375,1.77978515625t0.84375,2.478515625q0,0.6591796875-0.22412109375,1.001953125t-0.90966796875,0.3427734375l-0.2900390625-0.052734375q0.7646484375,2.056640625,1.318359375,4.21875t1.0810546875,4.32421875q0.2109375,0.421875,0.31640625,0.75146484375t0.10546875,0.64599609375q0,0.421875-0.2373046875,0.69873046875t-0.61962890625,0.40869140625t-0.791015625,0.1845703125t-0.72509765625,0.052734375q-1.1337890625,0-1.70068359375-0.3955078125t-0.8173828125-1.0810546875t-0.30322265625-1.54248046875t-0.2109375-1.72705078125q-0.31640625,1.0283203125-0.83056640625,2.00390625t-1.212890625,1.75341796875t-1.64794921875,1.2392578125t-2.1357421875,0.46142578125q-1.740234375,0-2.9267578125-1.001953125t-1.91162109375-2.46533203125t-1.0546875-3.12451171875t-0.32958984375-3.0849609375z M41.358486328125,70.7958984375q0,0.9755859375,0.1318359375,2.056640625t0.43505859375,2.1357421875t0.77783203125,1.99072265625t1.1865234375,1.64794921875q1.2919921875-1.3974609375,1.91162109375-3.4013671875t1.107421875-3.86279296875t1.107421875-3.1904296875t1.91162109375-1.33154296875q0.8173828125,0,1.37109375,0.2900390625q-0.263671875-0.6591796875-0.8701171875-1.27880859375t-1.35791015625-1.1337890625t-1.5556640625-0.84375t-1.51611328125-0.32958984375q-0.2109375,0-0.48779296875,0.06591796875t-0.43505859375,0.01318359375q-1.0810546875,0.31640625-1.77978515625,1.09423828125t-1.1337890625,1.83251953125t-0.61962890625,2.162109375t-0.1845703125,2.0830078125z M59.38494140625,61.3564453125q0-0.2109375,0.25048828125-0.38232421875t0.56689453125-0.25048828125t0.64599609375-0.10546875t0.48779296875-0.0263671875q1.1865234375,0,2.0302734375,1.0546875t1.46337890625,2.70263671875t1.0546875,3.638671875t0.83056640625,3.96826171875t0.77783203125,3.62548828125t0.85693359375,2.54443359375q0.8173828125-1.6083984375,1.48974609375-3.8759765625t1.2392578125-4.693359375t1.001953125-4.78564453125t0.69873046875-4.12646484375q0.10546875-0.474609375,0.6591796875-0.59326171875t0.9228515625-0.11865234375q0.6064453125,0,1.0546875,0.17138671875t0.4482421875,0.75146484375q0,0.9755859375-0.2373046875,2.64990234375t-0.64599609375,3.75732421875t-0.94921875,4.271484375t-1.16015625,4.15283203125t-1.2919921875,3.48046875t-1.33154296875,2.14892578125q-0.31640625,0.369140625-0.98876953125,0.51416015625t-1.12060546875,0.14501953125q-1.5556640625,0-2.583984375-0.8173828125l0,0.052734375q-1.6083984375-1.5029296875-2.373046875-3.6650390625t-1.107421875-4.5087890625t-0.61962890625-4.6669921875t-0.93603515625-4.21875q-0.10546875-0.2109375-0.263671875-0.61962890625t-0.369140625-0.8173828125t-0.35595703125-0.77783203125t-0.14501953125-0.580078125z M80.179951171875,71.1650390625q0-1.79296875,0.48779296875-3.4541015625t1.46337890625-2.96630859375t2.43896484375-2.0830078125t3.38818359375-0.77783203125q1.1865234375,0,2.62353515625,0.35595703125t2.70263671875,1.0546875t2.109375,1.77978515625t0.84375,2.478515625q0,0.6591796875-0.22412109375,1.001953125t-0.90966796875,0.3427734375l-0.2900390625-0.052734375q0.7646484375,2.056640625,1.318359375,4.21875t1.0810546875,4.32421875q0.2109375,0.421875,0.31640625,0.75146484375t0.10546875,0.64599609375q0,0.421875-0.2373046875,0.69873046875t-0.61962890625,0.40869140625t-0.791015625,0.1845703125t-0.72509765625,0.052734375q-1.1337890625,0-1.70068359375-0.3955078125t-0.8173828125-1.0810546875t-0.30322265625-1.54248046875t-0.2109375-1.72705078125q-0.31640625,1.0283203125-0.83056640625,2.00390625t-1.212890625,1.75341796875t-1.64794921875,1.2392578125t-2.1357421875,0.46142578125q-1.740234375,0-2.9267578125-1.001953125t-1.91162109375-2.46533203125t-1.0546875-3.12451171875t-0.32958984375-3.0849609375z M83.924091796875,70.7958984375q0,0.9755859375,0.1318359375,2.056640625t0.43505859375,2.1357421875t0.77783203125,1.99072265625t1.1865234375,1.64794921875q1.2919921875-1.3974609375,1.91162109375-3.4013671875t1.107421875-3.86279296875t1.107421875-3.1904296875t1.91162109375-1.33154296875q0.8173828125,0,1.37109375,0.2900390625q-0.263671875-0.6591796875-0.8701171875-1.27880859375t-1.35791015625-1.1337890625t-1.5556640625-0.84375t-1.51611328125-0.32958984375q-0.2109375,0-0.48779296875,0.06591796875t-0.43505859375,0.01318359375q-1.0810546875,0.31640625-1.77978515625,1.09423828125t-1.1337890625,1.83251953125t-0.61962890625,2.162109375t-0.1845703125,2.0830078125z M103.0316015625,75.990234375q0-0.9228515625,0.6328125-1.17333984375t1.37109375-0.25048828125q1.2919921875,0,2.1884765625,1.16015625t1.70068359375,2.54443359375t1.59521484375,2.54443359375t1.8720703125,1.16015625q0.8173828125,0,1.48974609375-0.40869140625t1.16015625-1.0283203125t0.75146484375-1.3974609375t0.263671875-1.54248046875q0-2.00390625-0.80419921875-4.1396484375t-2.056640625-4.4033203125t-2.64990234375-4.640625t-2.63671875-4.8251953125t-2.056640625-4.99658203125t-0.8173828125-5.12841796875q0-3.8759765625,2.3203125-6.01171875t6.1171875-2.1357421875q1.2919921875,0,2.6103515625,0.369140625t2.42578125,1.107421875t1.80615234375,1.8193359375t0.69873046875,2.53125q0,0.474609375-0.69873046875,0.61962890625t-1.01513671875,0.14501953125q-0.474609375,0-1.0283203125-0.11865234375t-0.7119140625-0.64599609375t-0.4482421875-1.212890625t-0.72509765625-1.27880859375t-1.0283203125-1.0283203125t-1.30517578125-0.43505859375q-1.1865234375,0-2.01708984375,0.48779296875t-1.3447265625,1.30517578125t-0.7646484375,1.83251953125t-0.25048828125,2.09619140625q0,2.53125,0.8701171875,5.10205078125t2.162109375,5.115234375t2.80810546875,5.02294921875t2.80810546875,4.8251953125t2.162109375,4.587890625t0.8701171875,4.2451171875q0,1.79296875-0.84375,3.0322265625t-2.1357421875,2.01708984375t-2.86083984375,1.1337890625t-3.07177734375,0.35595703125q-1.6083984375,0-3.2958984375-0.64599609375t-3.0322265625-1.77978515625t-2.21484375-2.64990234375t-0.8701171875-3.28271484375z M126.75336914062,70.6376953125q0-1.8984375,0.48779296875-3.81005859375t1.51611328125-3.427734375t2.62353515625-2.46533203125t3.75732421875-0.94921875q0.9228515625,0,2.0302734375,0.22412109375t2.04345703125,0.7119140625t1.58203125,1.265625t0.64599609375,1.91162109375q0,0.7119140625-0.369140625,0.94921875t-0.9755859375,0.2373046875l-0.1845703125-0.263671875t-0.51416015625-0.67236328125t-0.69873046875-0.8701171875t-0.7119140625-0.77783203125q-1.0810546875-1.0810546875-2.0302734375-1.16015625l-0.2109375,0q-0.791015625,0-1.4765625,0.474609375q-0.7646484375,0.580078125-1.35791015625,1.634765625t-0.98876953125,2.2412109375t-0.61962890625,2.3994140625t-0.22412109375,2.00390625q0,1.0810546875,0.25048828125,2.46533203125t0.84375,2.62353515625t1.5029296875,2.0830078125t2.33349609375,0.84375q1.2919921875,0,2.3466796875-0.6328125t2.01708984375-1.41064453125t1.88525390625-1.3974609375t1.8984375-0.61962890625q0.421875,0,0.85693359375,0.10546875t0.43505859375,0.5537109375l0,0.158203125q-0.474609375,1.2392578125-1.6083984375,2.1884765625t-2.54443359375,1.64794921875t-2.9267578125,1.04150390625t-2.70263671875,0.3427734375q-2.21484375,0-3.88916015625-0.72509765625t-2.78173828125-1.99072265625t-1.67431640625-3.04541015625t-0.56689453125-3.88916015625z M149.76322265625,63.7822265625q0-1.0810546875,0.38232421875-1.8193359375t1.62158203125-0.73828125q0.474609375,0,1.1865234375,0.14501953125t0.8173828125,0.72509765625q0.263671875,1.5556640625,0.2900390625,3.375t0.1845703125,3.427734375q0.6064453125-1.1865234375,1.5556640625-2.5576171875t2.162109375-2.53125t2.63671875-1.9248046875t2.900390625-0.7646484375q0.10546875,0,0.3955078125,0.0791015625t0.54052734375,0.22412109375t0.30322265625,0.32958984375t-0.2900390625,0.3427734375q-0.10546875,0.31640625-0.4482421875,0.38232421875t-0.6064453125,0.06591796875q-0.158203125,0-0.5009765625-0.1318359375q-1.951171875,1.0283203125-3.322265625,2.794921875t-2.2412109375,3.91552734375t-1.265625,4.53515625t-0.3955078125,4.65380859375q0,1.1337890625-0.51416015625,1.37109375t-1.64794921875,0.2373046875q-0.6064453125,0-1.27880859375-0.1318359375t-0.93603515625-0.84375q-0.474609375-1.5029296875-0.77783203125-3.4541015625t-0.46142578125-4.02099609375t-0.22412109375-4.07373046875t-0.06591796875-3.6123046875z M168.50159179688,70.5322265625q0-2.42578125,0.56689453125-4.75927734375t0.96240234375-4.65380859375q0.10546875-0.6064453125,0.83056640625-0.75146484375t1.22607421875-0.14501953125q0.8701171875,0,1.3974609375,0.263671875q0.2109375,0.10546875,0.3955078125,0.2373046875t0.1845703125,0.3427734375q0,2.267578125-0.54052734375,4.4296875t-0.54052734375,4.587890625q0,0.8173828125,0.11865234375,1.54248046875t0.22412109375,1.43701171875l0.158203125,0.7646484375q0,0.2109375,0.0263671875,0.369140625t0.0791015625,0.369140625q0,0.474609375-0.67236328125,0.64599609375t-1.17333984375,0.17138671875q-0.7646484375,0-1.41064453125-0.30322265625t-1.01513671875-1.04150390625l-0.369140625-0.7646484375q-0.31640625-0.6064453125-0.31640625-1.35791015625t-0.1318359375-1.38427734375z M170.18909179688,54.6591796875l0-0.5009765625q0-1.2392578125,0.61962890625-2.21484375t1.85888671875-0.9755859375q0.158203125,0,0.30322265625,0.0263671875t0.30322265625,0.0263671875q0.31640625,0.052734375,0.83056640625,0.25048828125t0.51416015625,0.61962890625l0,0.052734375q-0.10546875,0.2109375-0.1318359375,0.43505859375t-0.1318359375,0.38232421875l0.052734375-0.052734375q-0.31640625,0.8173828125-0.51416015625,1.318359375t-0.43505859375,0.80419921875t-0.59326171875,0.43505859375t-1.01513671875,0.1318359375q-0.10546875,0-0.369140625-0.0263671875t-0.56689453125-0.10546875t-0.51416015625-0.2109375t-0.2109375-0.3955078125z M180.0153515625,61.6201171875q0-1.2392578125,0.48779296875-1.83251953125t1.77978515625-0.59326171875q0.7646484375,0,1.43701171875,0.31640625t0.67236328125,1.3447265625q0.10546875,1.5029296875,0.10546875,3.15087890625t0.2900390625,3.12451171875q0.6591796875-1.0810546875,1.48974609375-2.162109375t1.83251953125-1.9248046875t2.1884765625-1.35791015625t2.583984375-0.51416015625q1.8984375,0,3.216796875,0.791015625t2.17529296875,2.056640625t1.2392578125,2.86083984375t0.38232421875,3.20361328125q0,2.478515625-0.75146484375,4.04736328125t-1.99072265625,2.46533203125t-2.80810546875,1.212890625t-3.15087890625,0.31640625q-1.3974609375,0-2.6103515625-0.54052734375t-1.6875-2.04345703125q0-0.421875,0.61962890625-0.52734375t0.88330078125-0.10546875q0.8701171875,0,1.2919921875,0.474609375q0.31640625,0.369140625,0.69873046875,0.75146484375t0.80419921875,0.38232421875q0.8173828125,0,1.7138671875-0.46142578125t1.64794921875-1.212890625t1.265625-1.77978515625t0.51416015625-2.109375q0-0.9228515625-0.158203125-2.2939453125t-0.54052734375-2.63671875t-1.0546875-2.1884765625t-1.70068359375-0.9228515625q-1.5556640625,0-2.80810546875,1.423828125t-2.0830078125,3.427734375t-1.2919921875,4.166015625t-0.46142578125,3.6123046875t0.1845703125,3.6650390625t0.38232421875,4.60107421875t0.38232421875,4.60107421875t0.1845703125,3.6650390625q0,0.369140625-0.30322265625,0.59326171875t-0.72509765625,0.35595703125t-0.85693359375,0.158203125t-0.64599609375,0.0263671875q-0.7119140625,0-1.48974609375-0.158203125t-1.06787109375-0.9755859375q-0.369140625-1.2919921875-0.685546875-3.67822265625t-0.56689453125-5.2734375t-0.43505859375-6.064453125t-0.31640625-6.13037109375t-0.19775390625-5.4052734375t-0.06591796875-3.90234375z M204.21172851562,54.421875q0-0.369140625,0.791015625-0.6328125t1.79296875-0.43505859375t1.93798828125-0.25048828125t1.27880859375-0.1318359375q0-0.7119140625,0.052734375-1.43701171875t0.2900390625-1.2919921875t0.75146484375-0.90966796875t1.43701171875-0.3427734375q0.7646484375,0,1.16015625,0.1845703125t0.84375,0.7646484375q0.10546875,0.31640625,0.10546875,0.6064453125l0,0.88330078125t-0.052734375,0.90966796875q0.9755859375-0.10546875,1.93798828125-0.25048828125t1.93798828125-0.14501953125q0.7119140625,0,0.9755859375,0.0263671875t0.52734375,0.6328125q0.2109375,0.6064453125-0.51416015625,0.9228515625t-1.740234375,0.474609375t-2.01708984375,0.2373046875t-1.212890625,0.0791015625q-0.31640625,4.53515625-0.64599609375,8.9912109375t-0.32958984375,9.0439453125q0,2.056640625,0.1318359375,4.2451171875t0.73828125,4.1396484375q0.158203125,0.6064453125,0.52734375,1.1337890625t0.369140625,1.1337890625q0,0.369140625-0.2900390625,0.580078125t-0.69873046875,0.35595703125t-0.8173828125,0.17138671875t-0.67236328125,0.0263671875q-1.6611328125,0-2.53125-1.2392578125t-1.25244140625-2.96630859375t-0.40869140625-3.54638671875t-0.0263671875-2.953125q0-2.3203125,0.09228515625-4.74609375t0.22412109375-4.798828125t0.369140625-4.640625t0.5537109375-4.21875q-0.9228515625,0.10546875-1.80615234375,0.2373046875t-1.80615234375,0.1318359375q-0.2109375,0-0.56689453125-0.0263671875t-0.67236328125-0.1318359375t-0.54052734375-0.2900390625t-0.22412109375-0.52734375z"/><path fill="#" d=""/></svg>
